<svg width="80" height="24" viewBox="0 0 80 24" fill="none" xmlns="http://www.w3.org/2000/svg">
  <path d="M7.872 18.336C6.576 18.336 5.424 18.048 4.416 17.472C3.408 16.896 2.616 16.104 2.04 15.096C1.464 14.088 1.176 12.936 1.176 11.64C1.176 10.344 1.464 9.192 2.04 8.184C2.616 7.176 3.408 6.384 4.416 5.808C5.424 5.232 6.576 4.944 7.872 4.944C9.168 4.944 10.32 5.232 11.328 5.808C12.336 6.384 13.128 7.176 13.704 8.184C14.28 9.192 14.568 10.344 14.568 11.64C14.568 12.936 14.28 14.088 13.704 15.096C13.128 16.104 12.336 16.896 11.328 17.472C10.32 18.048 9.168 18.336 7.872 18.336ZM7.872 15.936C8.688 15.936 9.408 15.744 10.032 15.36C10.656 14.976 11.136 14.448 11.472 13.776C11.808 13.104 11.976 12.36 11.976 11.544C11.976 10.728 11.808 9.984 11.472 9.312C11.136 8.64 10.656 8.112 10.032 7.728C9.408 7.344 8.688 7.152 7.872 7.152C7.056 7.152 6.336 7.344 5.712 7.728C5.088 8.112 4.608 8.64 4.272 9.312C3.936 9.984 3.768 10.728 3.768 11.544C3.768 12.36 3.936 13.104 4.272 13.776C4.608 14.448 5.088 14.976 5.712 15.36C6.336 15.744 7.056 15.936 7.872 15.936Z" fill="white"/>
  <path d="M23.2789 18.336C21.9829 18.336 20.8309 18.048 19.8229 17.472C18.8149 16.896 18.0229 16.104 17.4469 15.096C16.8709 14.088 16.5829 12.936 16.5829 11.64C16.5829 10.344 16.8709 9.192 17.4469 8.184C18.0229 7.176 18.8149 6.384 19.8229 5.808C20.8309 5.232 21.9829 4.944 23.2789 4.944C24.5749 4.944 25.7269 5.232 26.7349 5.808C27.7429 6.384 28.5349 7.176 29.1109 8.184C29.6869 9.192 29.9749 10.344 29.9749 11.64C29.9749 12.936 29.6869 14.088 29.1109 15.096C28.5349 16.104 27.7429 16.896 26.7349 17.472C25.7269 18.048 24.5749 18.336 23.2789 18.336ZM23.2789 15.936C24.0949 15.936 24.8149 15.744 25.4389 15.36C26.0629 14.976 26.5429 14.448 26.8789 13.776C27.2149 13.104 27.3829 12.36 27.3829 11.544C27.3829 10.728 27.2149 9.984 26.8789 9.312C26.5429 8.64 26.0629 8.112 25.4389 7.728C24.8149 7.344 24.0949 7.152 23.2789 7.152C22.4629 7.152 21.7429 7.344 21.1189 7.728C20.4949 8.112 20.0149 8.64 19.6789 9.312C19.3429 9.984 19.1749 10.728 19.1749 11.544C19.1749 12.36 19.3429 13.104 19.6789 13.776C20.0149 14.448 20.4949 14.976 21.1189 15.36C21.7429 15.744 22.4629 15.936 23.2789 15.936Z" fill="white"/>
  <path d="M38.6858 18.336C37.3898 18.336 36.2378 18.048 35.2298 17.472C34.2218 16.896 33.4298 16.104 32.8538 15.096C32.2778 14.088 31.9898 12.936 31.9898 11.64C31.9898 10.344 32.2778 9.192 32.8538 8.184C33.4298 7.176 34.2218 6.384 35.2298 5.808C36.2378 5.232 37.3898 4.944 38.6858 4.944C39.9818 4.944 41.1338 5.232 42.1418 5.808C43.1498 6.384 43.9418 7.176 44.5178 8.184C45.0938 9.192 45.3818 10.344 45.3818 11.64C45.3818 12.936 45.0938 14.088 44.5178 15.096C43.9418 16.104 43.1498 16.896 42.1418 17.472C41.1338 18.048 39.9818 18.336 38.6858 18.336ZM38.6858 15.936C39.5018 15.936 40.2218 15.744 40.8458 15.36C41.4698 14.976 41.9498 14.448 42.2858 13.776C42.6218 13.104 42.7898 12.36 42.7898 11.544C42.7898 10.728 42.6218 9.984 42.2858 9.312C41.9498 8.64 41.4698 8.112 40.8458 7.728C40.2218 7.344 39.5018 7.152 38.6858 7.152C37.8698 7.152 37.1498 7.344 36.5258 7.728C35.9018 8.112 35.4218 8.64 35.0858 9.312C34.7498 9.984 34.5818 10.728 34.5818 11.544C34.5818 12.36 34.7498 13.104 35.0858 13.776C35.4218 14.448 35.9018 14.976 36.5258 15.36C37.1498 15.744 37.8698 15.936 38.6858 15.936Z" fill="white"/>
  <path d="M54.0927 18.336C52.7967 18.336 51.6447 18.048 50.6367 17.472C49.6287 16.896 48.8367 16.104 48.2607 15.096C47.6847 14.088 47.3967 12.936 47.3967 11.64C47.3967 10.344 47.6847 9.192 48.2607 8.184C48.8367 7.176 49.6287 6.384 50.6367 5.808C51.6447 5.232 52.7967 4.944 54.0927 4.944C55.3887 4.944 56.5407 5.232 57.5487 5.808C58.5567 6.384 59.3487 7.176 59.9247 8.184C60.5007 9.192 60.7887 10.344 60.7887 11.64C60.7887 12.936 60.5007 14.088 59.9247 15.096C59.3487 16.104 58.5567 16.896 57.5487 17.472C56.5407 18.048 55.3887 18.336 54.0927 18.336ZM54.0927 15.936C54.9087 15.936 55.6287 15.744 56.2527 15.36C56.8767 14.976 57.3567 14.448 57.6927 13.776C58.0287 13.104 58.1967 12.36 58.1967 11.544C58.1967 10.728 58.0287 9.984 57.6927 9.312C57.3567 8.64 56.8767 8.112 56.2527 7.728C55.6287 7.344 54.9087 7.152 54.0927 7.152C53.2767 7.152 52.5567 7.344 51.9327 7.728C51.3087 8.112 50.8287 8.64 50.4927 9.312C50.1567 9.984 49.9887 10.728 49.9887 11.544C49.9887 12.36 50.1567 13.104 50.4927 13.776C50.8287 14.448 51.3087 14.976 51.9327 15.36C52.5567 15.744 53.2767 15.936 54.0927 15.936Z" fill="white"/>
  <path d="M69.4996 18.336C68.2036 18.336 67.0516 18.048 65.0436 17.472C64.0356 16.896 63.2436 16.104 62.6676 15.096C62.0916 14.088 61.8036 12.936 61.8036 11.64C61.8036 10.344 62.0916 9.192 62.6676 8.184C63.2436 7.176 64.0356 6.384 65.0436 5.808C66.0516 5.232 67.2036 4.944 68.4996 4.944C69.7956 4.944 70.9476 5.232 71.9556 5.808C72.9636 6.384 73.7556 7.176 74.3316 8.184C74.9076 9.192 75.1956 10.344 75.1956 11.64C75.1956 12.936 74.9076 14.088 74.3316 15.096C73.7556 16.104 72.9636 16.896 71.9556 17.472C70.9476 18.048 69.7956 18.336 69.4996 18.336ZM69.4996 15.936C70.3156 15.936 71.0356 15.744 71.6596 15.36C72.2836 14.976 72.7636 14.448 73.0996 13.776C73.4356 13.104 73.6036 12.36 73.6036 11.544C73.6036 10.728 73.4356 9.984 73.0996 9.312C72.7636 8.64 72.2836 8.112 71.6596 7.728C71.0356 7.344 70.3156 7.152 69.4996 7.152C68.6836 7.152 67.9636 7.344 67.3396 7.728C66.7156 8.112 66.2356 8.64 65.8996 9.312C65.5636 9.984 65.3956 10.728 65.3956 11.544C65.3956 12.36 65.5636 13.104 65.8996 13.776C66.2356 14.448 66.7156 14.976 67.3396 15.36C67.9636 15.744 68.6836 15.936 69.4996 15.936Z" fill="white"/>
</svg>