<svg width="120" height="120" viewBox="0 0 120 120" fill="none" xmlns="http://www.w3.org/2000/svg">
  <rect width="120" height="120" rx="24" fill="#6E8FDE"/>
  <path d="M60 102C83.196 102 102 83.196 102 60C102 36.804 83.196 18 60 18C36.804 18 18 36.804 18 60C18 83.196 36.804 102 60 102Z" fill="white"/>
  <path d="M60 90C76.5685 90 90 76.5685 90 60C90 43.4315 76.5685 30 60 30C43.4315 30 30 43.4315 30 60C30 76.5685 43.4315 90 60 90Z" fill="#6E8FDE"/>
  <path d="M60 78C69.9411 78 78 69.9411 78 60C78 50.0589 69.9411 42 60 42C50.0589 42 42 50.0589 42 60C42 69.9411 50.0589 78 60 78Z" fill="white"/>
</svg>